<svg id="visual" viewBox="0 0 900 600" width="900" height="600" xmlns="http://www.w3.org/2000/svg" xmlns:xlink="http://www.w3.org/1999/xlink" version="1.1"><rect x="0" y="0" width="900" height="600" fill="#2D2C55"></rect><defs><linearGradient id="grad1_0" x1="33.3%" y1="0%" x2="100%" y2="100%"><stop offset="20%" stop-color="#222240" stop-opacity="1"></stop><stop offset="80%" stop-color="#222240" stop-opacity="1"></stop></linearGradient></defs><defs><linearGradient id="grad1_1" x1="33.3%" y1="0%" x2="100%" y2="100%"><stop offset="20%" stop-color="#222240" stop-opacity="1"></stop><stop offset="80%" stop-color="#2d2c55" stop-opacity="1"></stop></linearGradient></defs><defs><linearGradient id="grad2_0" x1="0%" y1="0%" x2="66.7%" y2="100%"><stop offset="20%" stop-color="#222240" stop-opacity="1"></stop><stop offset="80%" stop-color="#222240" stop-opacity="1"></stop></linearGradient></defs><defs><linearGradient id="grad2_1" x1="0%" y1="0%" x2="66.7%" y2="100%"><stop offset="20%" stop-color="#2d2c55" stop-opacity="1"></stop><stop offset="80%" stop-color="#222240" stop-opacity="1"></stop></linearGradient></defs><g transform="translate(900, 0)"><path d="M0 486.7C-49.2 478.1 -98.3 469.4 -148.3 456.5C-198.3 443.6 -249.2 426.4 -286.1 393.8C-323 361.2 -346.1 313.3 -372.1 270.4C-398.2 227.4 -427.4 189.5 -447 145.2C-466.6 101 -476.7 50.5 -486.7 0L0 0Z" fill="#27274a"></path><path d="M0 243.4C-24.6 239 -49.2 234.7 -74.2 228.3C-99.2 221.8 -124.6 213.2 -143.1 196.9C-161.5 180.6 -173 156.7 -186.1 135.2C-199.1 113.7 -213.7 94.7 -223.5 72.6C-233.3 50.5 -238.3 25.3 -243.4 0L0 0Z" fill="#222240"></path></g><g transform="translate(0, 600)"><path d="M0 -486.7C54 -486.1 107.9 -485.4 150.4 -462.9C192.9 -440.5 223.8 -396.2 265.1 -364.9C306.3 -333.5 357.9 -315.1 382.7 -278C407.5 -241 405.6 -185.4 418.5 -136C431.4 -86.5 459.1 -43.3 486.7 0L0 0Z" fill="#27274a"></path><path d="M0 -243.4C27 -243 54 -242.7 75.2 -231.5C96.4 -220.2 111.9 -198.1 132.5 -182.4C153.2 -166.8 178.9 -157.5 191.3 -139C203.7 -120.5 202.8 -92.7 209.2 -68C215.7 -43.3 229.5 -21.6 243.4 0L0 0Z" fill="#222240"></path></g></svg>