<svg id="visual" viewBox="0 0 960 540" width="960" height="540" xmlns="http://www.w3.org/2000/svg" xmlns:xlink="http://www.w3.org/1999/xlink" version="1.1"><rect x="0" y="0" width="960" height="540" fill="#2D2C55"></rect><defs><linearGradient id="grad1_0" x1="43.8%" y1="100%" x2="100%" y2="0%"><stop offset="14.444444444444446%" stop-color="#37657f" stop-opacity="1"></stop><stop offset="85.55555555555554%" stop-color="#37657f" stop-opacity="1"></stop></linearGradient></defs><defs><linearGradient id="grad1_1" x1="43.8%" y1="100%" x2="100%" y2="0%"><stop offset="14.444444444444446%" stop-color="#37657f" stop-opacity="1"></stop><stop offset="85.55555555555554%" stop-color="#325d7a" stop-opacity="1"></stop></linearGradient></defs><defs><linearGradient id="grad1_2" x1="43.8%" y1="100%" x2="100%" y2="0%"><stop offset="14.444444444444446%" stop-color="#2f5575" stop-opacity="1"></stop><stop offset="85.55555555555554%" stop-color="#325d7a" stop-opacity="1"></stop></linearGradient></defs><defs><linearGradient id="grad1_3" x1="43.8%" y1="100%" x2="100%" y2="0%"><stop offset="14.444444444444446%" stop-color="#2f5575" stop-opacity="1"></stop><stop offset="85.55555555555554%" stop-color="#2c4d70" stop-opacity="1"></stop></linearGradient></defs><defs><linearGradient id="grad1_4" x1="43.8%" y1="100%" x2="100%" y2="0%"><stop offset="14.444444444444446%" stop-color="#2c456a" stop-opacity="1"></stop><stop offset="85.55555555555554%" stop-color="#2c4d70" stop-opacity="1"></stop></linearGradient></defs><defs><linearGradient id="grad1_5" x1="43.8%" y1="100%" x2="100%" y2="0%"><stop offset="14.444444444444446%" stop-color="#2c456a" stop-opacity="1"></stop><stop offset="85.55555555555554%" stop-color="#2c3d64" stop-opacity="1"></stop></linearGradient></defs><defs><linearGradient id="grad1_6" x1="43.8%" y1="100%" x2="100%" y2="0%"><stop offset="14.444444444444446%" stop-color="#2c345d" stop-opacity="1"></stop><stop offset="85.55555555555554%" stop-color="#2c3d64" stop-opacity="1"></stop></linearGradient></defs><defs><linearGradient id="grad1_7" x1="43.8%" y1="100%" x2="100%" y2="0%"><stop offset="14.444444444444446%" stop-color="#2c345d" stop-opacity="1"></stop><stop offset="85.55555555555554%" stop-color="#2d2c55" stop-opacity="1"></stop></linearGradient></defs><defs><linearGradient id="grad2_0" x1="0%" y1="100%" x2="56.3%" y2="0%"><stop offset="14.444444444444446%" stop-color="#37657f" stop-opacity="1"></stop><stop offset="85.55555555555554%" stop-color="#37657f" stop-opacity="1"></stop></linearGradient></defs><defs><linearGradient id="grad2_1" x1="0%" y1="100%" x2="56.3%" y2="0%"><stop offset="14.444444444444446%" stop-color="#325d7a" stop-opacity="1"></stop><stop offset="85.55555555555554%" stop-color="#37657f" stop-opacity="1"></stop></linearGradient></defs><defs><linearGradient id="grad2_2" x1="0%" y1="100%" x2="56.3%" y2="0%"><stop offset="14.444444444444446%" stop-color="#325d7a" stop-opacity="1"></stop><stop offset="85.55555555555554%" stop-color="#2f5575" stop-opacity="1"></stop></linearGradient></defs><defs><linearGradient id="grad2_3" x1="0%" y1="100%" x2="56.3%" y2="0%"><stop offset="14.444444444444446%" stop-color="#2c4d70" stop-opacity="1"></stop><stop offset="85.55555555555554%" stop-color="#2f5575" stop-opacity="1"></stop></linearGradient></defs><defs><linearGradient id="grad2_4" x1="0%" y1="100%" x2="56.3%" y2="0%"><stop offset="14.444444444444446%" stop-color="#2c4d70" stop-opacity="1"></stop><stop offset="85.55555555555554%" stop-color="#2c456a" stop-opacity="1"></stop></linearGradient></defs><defs><linearGradient id="grad2_5" x1="0%" y1="100%" x2="56.3%" y2="0%"><stop offset="14.444444444444446%" stop-color="#2c3d64" stop-opacity="1"></stop><stop offset="85.55555555555554%" stop-color="#2c456a" stop-opacity="1"></stop></linearGradient></defs><defs><linearGradient id="grad2_6" x1="0%" y1="100%" x2="56.3%" y2="0%"><stop offset="14.444444444444446%" stop-color="#2c3d64" stop-opacity="1"></stop><stop offset="85.55555555555554%" stop-color="#2c345d" stop-opacity="1"></stop></linearGradient></defs><defs><linearGradient id="grad2_7" x1="0%" y1="100%" x2="56.3%" y2="0%"><stop offset="14.444444444444446%" stop-color="#2d2c55" stop-opacity="1"></stop><stop offset="85.55555555555554%" stop-color="#2c345d" stop-opacity="1"></stop></linearGradient></defs><g transform="translate(960, 540)"><path d="M-393 0C-402.7 -39.4 -412.4 -78.9 -391.2 -104.8C-370 -130.8 -317.8 -143.2 -294.4 -170C-271.1 -196.8 -276.7 -237.9 -258.8 -258.8C-240.9 -279.7 -199.7 -280.5 -168.5 -291.9C-137.3 -303.2 -116.2 -325.2 -89.8 -335.2C-63.4 -345.1 -31.7 -343.1 0 -341L0 0Z" fill="#2d3059"></path><path d="M-343.9 0C-352.4 -34.5 -360.9 -69 -342.3 -91.7C-323.7 -114.4 -278.1 -125.3 -257.6 -148.8C-237.2 -172.2 -242.1 -208.1 -226.5 -226.5C-210.8 -244.8 -174.7 -245.4 -147.4 -255.4C-120.2 -265.3 -101.7 -284.6 -78.6 -293.3C-55.5 -302 -27.7 -300.2 0 -298.4L0 0Z" fill="#2c3960"></path><path d="M-294.7 0C-302 -29.6 -309.3 -59.2 -293.4 -78.6C-277.5 -98.1 -238.3 -107.4 -220.8 -127.5C-203.3 -147.6 -207.5 -178.4 -194.1 -194.1C-180.7 -209.8 -149.8 -210.4 -126.4 -218.9C-103 -227.4 -87.2 -243.9 -67.4 -251.4C-47.6 -258.9 -23.8 -257.3 0 -255.7L0 0Z" fill="#2b4167"></path><path d="M-245.6 0C-251.7 -24.6 -257.8 -49.3 -244.5 -65.5C-231.2 -81.7 -198.6 -89.5 -184 -106.3C-169.5 -123 -172.9 -148.7 -161.8 -161.8C-150.6 -174.8 -124.8 -175.3 -105.3 -182.4C-85.8 -189.5 -72.6 -203.3 -56.1 -209.5C-39.6 -215.7 -19.8 -214.4 0 -213.1L0 0Z" fill="#2c496d"></path><path d="M-196.5 0C-201.4 -19.7 -206.2 -39.4 -195.6 -52.4C-185 -65.4 -158.9 -71.6 -147.2 -85C-135.6 -98.4 -138.3 -118.9 -129.4 -129.4C-120.5 -139.9 -99.8 -140.2 -84.3 -145.9C-68.7 -151.6 -58.1 -162.6 -44.9 -167.6C-31.7 -172.6 -15.9 -171.5 0 -170.5L0 0Z" fill="#2d5173"></path><path d="M-147.4 0C-151 -14.8 -154.7 -29.6 -146.7 -39.3C-138.7 -49 -119.2 -53.7 -110.4 -63.8C-101.7 -73.8 -103.7 -89.2 -97.1 -97.1C-90.4 -104.9 -74.9 -105.2 -63.2 -109.4C-51.5 -113.7 -43.6 -122 -33.7 -125.7C-23.8 -129.4 -11.9 -128.7 0 -127.9L0 0Z" fill="#305978"></path><path d="M-98.2 0C-100.7 -9.9 -103.1 -19.7 -97.8 -26.2C-92.5 -32.7 -79.4 -35.8 -73.6 -42.5C-67.8 -49.2 -69.2 -59.5 -64.7 -64.7C-60.2 -69.9 -49.9 -70.1 -42.1 -73C-34.3 -75.8 -29.1 -81.3 -22.5 -83.8C-15.9 -86.3 -7.9 -85.8 0 -85.2L0 0Z" fill="#34617d"></path><path d="M-49.1 0C-50.3 -4.9 -51.6 -9.9 -48.9 -13.1C-46.2 -16.3 -39.7 -17.9 -36.8 -21.3C-33.9 -24.6 -34.6 -29.7 -32.4 -32.4C-30.1 -35 -25 -35.1 -21.1 -36.5C-17.2 -37.9 -14.5 -40.7 -11.2 -41.9C-7.9 -43.1 -4 -42.9 0 -42.6L0 0Z" fill="#37657f"></path></g><g transform="translate(0, 0)"><path d="M403 0C408.2 38.5 413.4 77.1 391.2 104.8C369 132.6 319.2 149.6 287.5 166C255.8 182.4 242.1 198.2 233.3 233.3C224.6 268.4 220.9 322.8 196 339.5C171.1 356.2 125 335.2 88.8 331.3C52.6 327.5 26.3 340.7 0 354L0 0Z" fill="#2d3059"></path><path d="M352.6 0C357.2 33.7 361.8 67.4 342.3 91.7C322.8 116 279.3 130.9 251.6 145.2C223.8 159.6 211.8 173.5 204.2 204.2C196.5 234.9 193.3 282.4 171.5 297C149.7 311.6 109.4 293.3 77.7 289.9C46 286.5 23 298.1 0 309.8L0 0Z" fill="#2c3960"></path><path d="M302.3 0C306.2 28.9 310.1 57.8 293.4 78.6C276.7 99.4 239.4 112.2 215.6 124.5C191.8 136.8 181.6 148.7 175 175C168.5 201.3 165.7 242.1 147 254.6C128.3 267.1 93.7 251.4 66.6 248.5C39.4 245.6 19.7 255.5 0 265.5L0 0Z" fill="#2b4167"></path><path d="M251.9 0C255.1 24.1 258.4 48.2 244.5 65.5C230.6 82.9 199.5 93.5 179.7 103.7C159.9 114 151.3 123.9 145.8 145.8C140.4 167.8 138.1 201.7 122.5 212.2C106.9 222.6 78.1 209.5 55.5 207.1C32.9 204.7 16.4 213 0 221.3L0 0Z" fill="#2c496d"></path><path d="M201.5 0C204.1 19.3 206.7 38.5 195.6 52.4C184.5 66.3 159.6 74.8 143.8 83C127.9 91.2 121 99.1 116.7 116.7C112.3 134.2 110.5 161.4 98 169.7C85.5 178.1 62.5 167.6 44.4 165.7C26.3 163.7 13.1 170.4 0 177L0 0Z" fill="#2d5173"></path><path d="M151.1 0C153.1 14.4 155 28.9 146.7 39.3C138.4 49.7 119.7 56.1 107.8 62.2C95.9 68.4 90.8 74.3 87.5 87.5C84.2 100.7 82.8 121 73.5 127.3C64.2 133.6 46.9 125.7 33.3 124.2C19.7 122.8 9.9 127.8 0 132.8L0 0Z" fill="#305978"></path><path d="M100.8 0C102.1 9.6 103.4 19.3 97.8 26.2C92.2 33.1 79.8 37.4 71.9 41.5C63.9 45.6 60.5 49.6 58.3 58.3C56.2 67.1 55.2 80.7 49 84.9C42.8 89 31.2 83.8 22.2 82.8C13.1 81.9 6.6 85.2 0 88.5L0 0Z" fill="#34617d"></path><path d="M50.4 0C51 4.8 51.7 9.6 48.9 13.1C46.1 16.6 39.9 18.7 35.9 20.7C32 22.8 30.3 24.8 29.2 29.2C28.1 33.6 27.6 40.3 24.5 42.4C21.4 44.5 15.6 41.9 11.1 41.4C6.6 40.9 3.3 42.6 0 44.3L0 0Z" fill="#37657f"></path></g></svg>