<svg id="visual" viewBox="0 0 960 540" width="960" height="540" xmlns="http://www.w3.org/2000/svg" xmlns:xlink="http://www.w3.org/1999/xlink" version="1.1"><rect x="0" y="0" width="960" height="540" fill="#2D2C55"></rect><path d="M0 122L13.3 134.7C26.7 147.3 53.3 172.7 80 165.5C106.7 158.3 133.3 118.7 160 106C186.7 93.3 213.3 107.7 240 141.2C266.7 174.7 293.3 227.3 320 230.7C346.7 234 373.3 188 400 157.3C426.7 126.7 453.3 111.3 480 131.2C506.7 151 533.3 206 560 240.3C586.7 274.7 613.3 288.3 640 264.5C666.7 240.7 693.3 179.3 720 156.2C746.7 133 773.3 148 800 151.5C826.7 155 853.3 147 880 152.5C906.7 158 933.3 177 946.7 186.5L960 196L960 541L946.7 541C933.3 541 906.7 541 880 541C853.3 541 826.7 541 800 541C773.3 541 746.7 541 720 541C693.3 541 666.7 541 640 541C613.3 541 586.7 541 560 541C533.3 541 506.7 541 480 541C453.3 541 426.7 541 400 541C373.3 541 346.7 541 320 541C293.3 541 266.7 541 240 541C213.3 541 186.7 541 160 541C133.3 541 106.7 541 80 541C53.3 541 26.7 541 13.3 541L0 541Z" fill="#2d2c55"></path><path d="M0 186L13.3 200C26.7 214 53.3 242 80 261.2C106.7 280.3 133.3 290.7 160 281.8C186.7 273 213.3 245 240 242.7C266.7 240.3 293.3 263.7 320 253C346.7 242.3 373.3 197.7 400 185.5C426.7 173.3 453.3 193.7 480 193.5C506.7 193.3 533.3 172.7 560 169.3C586.7 166 613.3 180 640 202.8C666.7 225.7 693.3 257.3 720 263.5C746.7 269.7 773.3 250.3 800 255.8C826.7 261.3 853.3 291.7 880 284C906.7 276.3 933.3 230.7 946.7 207.8L960 185L960 541L946.7 541C933.3 541 906.7 541 880 541C853.3 541 826.7 541 800 541C773.3 541 746.7 541 720 541C693.3 541 666.7 541 640 541C613.3 541 586.7 541 560 541C533.3 541 506.7 541 480 541C453.3 541 426.7 541 400 541C373.3 541 346.7 541 320 541C293.3 541 266.7 541 240 541C213.3 541 186.7 541 160 541C133.3 541 106.7 541 80 541C53.3 541 26.7 541 13.3 541L0 541Z" fill="#2b2a51"></path><path d="M0 285L13.3 299.2C26.7 313.3 53.3 341.7 80 343.7C106.7 345.7 133.3 321.3 160 296.5C186.7 271.7 213.3 246.3 240 256.5C266.7 266.7 293.3 312.3 320 333.7C346.7 355 373.3 352 400 329.8C426.7 307.7 453.3 266.3 480 262C506.7 257.7 533.3 290.3 560 314C586.7 337.7 613.3 352.3 640 360.3C666.7 368.3 693.3 369.7 720 365.7C746.7 361.7 773.3 352.3 800 337.7C826.7 323 853.3 303 880 286.3C906.7 269.7 933.3 256.3 946.7 249.7L960 243L960 541L946.7 541C933.3 541 906.7 541 880 541C853.3 541 826.7 541 800 541C773.3 541 746.7 541 720 541C693.3 541 666.7 541 640 541C613.3 541 586.7 541 560 541C533.3 541 506.7 541 480 541C453.3 541 426.7 541 400 541C373.3 541 346.7 541 320 541C293.3 541 266.7 541 240 541C213.3 541 186.7 541 160 541C133.3 541 106.7 541 80 541C53.3 541 26.7 541 13.3 541L0 541Z" fill="#2a294c"></path><path d="M0 315L13.3 321.2C26.7 327.3 53.3 339.7 80 336.5C106.7 333.3 133.3 314.7 160 317.2C186.7 319.7 213.3 343.3 240 356.7C266.7 370 293.3 373 320 360.7C346.7 348.3 373.3 320.7 400 312.5C426.7 304.3 453.3 315.7 480 336.2C506.7 356.7 533.3 386.3 560 396.7C586.7 407 613.3 398 640 376C666.7 354 693.3 319 720 312.8C746.7 306.7 773.3 329.3 800 350.2C826.7 371 853.3 390 880 388.8C906.7 387.7 933.3 366.3 946.7 355.7L960 345L960 541L946.7 541C933.3 541 906.7 541 880 541C853.3 541 826.7 541 800 541C773.3 541 746.7 541 720 541C693.3 541 666.7 541 640 541C613.3 541 586.7 541 560 541C533.3 541 506.7 541 480 541C453.3 541 426.7 541 400 541C373.3 541 346.7 541 320 541C293.3 541 266.7 541 240 541C213.3 541 186.7 541 160 541C133.3 541 106.7 541 80 541C53.3 541 26.7 541 13.3 541L0 541Z" fill="#282748"></path><path d="M0 451L13.3 441.7C26.7 432.3 53.3 413.7 80 410.2C106.7 406.7 133.3 418.3 160 426.3C186.7 434.3 213.3 438.7 240 436.8C266.7 435 293.3 427 320 422.8C346.7 418.7 373.3 418.3 400 416.2C426.7 414 453.3 410 480 407.2C506.7 404.3 533.3 402.7 560 406.3C586.7 410 613.3 419 640 412.3C666.7 405.7 693.3 383.3 720 383.3C746.7 383.3 773.3 405.7 800 417.7C826.7 429.7 853.3 431.3 880 431.7C906.7 432 933.3 431 946.7 430.5L960 430L960 541L946.7 541C933.3 541 906.7 541 880 541C853.3 541 826.7 541 800 541C773.3 541 746.7 541 720 541C693.3 541 666.7 541 640 541C613.3 541 586.7 541 560 541C533.3 541 506.7 541 480 541C453.3 541 426.7 541 400 541C373.3 541 346.7 541 320 541C293.3 541 266.7 541 240 541C213.3 541 186.7 541 160 541C133.3 541 106.7 541 80 541C53.3 541 26.7 541 13.3 541L0 541Z" fill="#272644"></path><path d="M0 482L13.3 483.7C26.7 485.3 53.3 488.7 80 490.3C106.7 492 133.3 492 160 481.7C186.7 471.3 213.3 450.7 240 452.5C266.7 454.3 293.3 478.7 320 482.8C346.7 487 373.3 471 400 461.8C426.7 452.7 453.3 450.3 480 452C506.7 453.7 533.3 459.3 560 462.7C586.7 466 613.3 467 640 466.7C666.7 466.3 693.3 464.7 720 461.3C746.7 458 773.3 453 800 455.8C826.7 458.7 853.3 469.3 880 468.2C906.7 467 933.3 454 946.7 447.5L960 441L960 541L946.7 541C933.3 541 906.7 541 880 541C853.3 541 826.7 541 800 541C773.3 541 746.7 541 720 541C693.3 541 666.7 541 640 541C613.3 541 586.7 541 560 541C533.3 541 506.7 541 480 541C453.3 541 426.7 541 400 541C373.3 541 346.7 541 320 541C293.3 541 266.7 541 240 541C213.3 541 186.7 541 160 541C133.3 541 106.7 541 80 541C53.3 541 26.7 541 13.3 541L0 541Z" fill="#252440"></path></svg>